<mxfile host="app.diagrams.net" modified="2023-11-11T16:23:24.407Z" agent="Mozilla/5.0 (Macintosh; Intel Mac OS X 10_15_7) AppleWebKit/537.36 (KHTML, like Gecko) Chrome/119.0.0.0 Safari/537.36" version="22.1.0" etag="hM75VfYW3ePP2eAa_My5" type="github">
  <diagram name="Page-1" id="viquiQ20y5q3F9xp7PsY">
    <mxGraphModel>
      <root>
        <mxCell id="0" />
        <mxCell id="1" parent="0" />
      </root>
    </mxGraphModel>
  </diagram>
</mxfile>
